<svg xmlns="http://www.w3.org/2000/svg" viewBox="0 0 100 100">
  <rect width="100" height="100" fill="white"/>
  <rect x="2" y="2" width="96" height="96" fill="none" stroke="#153C85" stroke-width="1.5"/>
  <line x1="8" y1="8" x2="92" y2="8" stroke="#153C85" stroke-width="0.6"/>
  <line x1="92" y1="8" x2="92" y2="92" stroke="#153C85" stroke-width="0.6"/>
  <line x1="92" y1="92" x2="8" y2="92" stroke="#153C85" stroke-width="0.6"/>
  <line x1="8" y1="92" x2="8" y2="8" stroke="#153C85" stroke-width="0.6"/>
  <line x1="8" y1="8" x2="92" y2="92" stroke="#153C85" stroke-width="0.6"/>
  <line x1="92" y1="8" x2="8" y2="92" stroke="#153C85" stroke-width="0.6"/>

  <g stroke="#153C85" fill="none">
    <circle cx="92" cy="92" r="6" stroke-width="0.8"/><circle cx="92" cy="92" r="4.5" fill="white"/><circle cx="92" cy="92" r="3.5" fill="#153C85"/>
    <circle cx="92" cy="8" r="6" stroke-width="0.8"/><circle cx="92" cy="8" r="4.5" fill="white"/><circle cx="92" cy="8" r="3.5" fill="#153C85"/>
    <circle cx="8" cy="8" r="6" stroke-width="0.8"/><circle cx="8" cy="8" r="4.5" fill="white"/><circle cx="8" cy="8" r="3.5" fill="#153C85"/>
    <circle cx="8" cy="92" r="6" stroke-width="0.8"/><circle cx="8" cy="92" r="4.5" fill="white"/><circle cx="8" cy="92" r="3.5" fill="#153C85"/>
    <circle cx="50" cy="50" r="6" stroke-width="0.8"/><circle cx="50" cy="50" r="4.5" fill="white"/><circle cx="50" cy="50" r="3.5" fill="#153C85"/>

    <circle cx="92" cy="74" r="3.5" stroke-width="0.6"/><circle cx="92" cy="74" r="2.5" fill="white"/><circle cx="92" cy="74" r="2" fill="#153C85"/>
    <circle cx="92" cy="56" r="3.5" stroke-width="0.6"/><circle cx="92" cy="56" r="2.5" fill="white"/><circle cx="92" cy="56" r="2" fill="#153C85"/>
    <circle cx="92" cy="38" r="3.5" stroke-width="0.6"/><circle cx="92" cy="38" r="2.5" fill="white"/><circle cx="92" cy="38" r="2" fill="#153C85"/>
    <circle cx="92" cy="20" r="3.5" stroke-width="0.6"/><circle cx="92" cy="20" r="2.5" fill="white"/><circle cx="92" cy="20" r="2" fill="#153C85"/>

    <circle cx="74" cy="8" r="3.5" stroke-width="0.6"/><circle cx="74" cy="8" r="2.5" fill="white"/><circle cx="74" cy="8" r="2" fill="#153C85"/>
    <circle cx="56" cy="8" r="3.5" stroke-width="0.6"/><circle cx="56" cy="8" r="2.5" fill="white"/><circle cx="56" cy="8" r="2" fill="#153C85"/>
    <circle cx="38" cy="8" r="3.5" stroke-width="0.6"/><circle cx="38" cy="8" r="2.5" fill="white"/><circle cx="38" cy="8" r="2" fill="#153C85"/>
    <circle cx="20" cy="8" r="3.5" stroke-width="0.6"/><circle cx="20" cy="8" r="2.5" fill="white"/><circle cx="20" cy="8" r="2" fill="#153C85"/>

    <circle cx="8" cy="20" r="3.5" stroke-width="0.6"/><circle cx="8" cy="20" r="2.5" fill="white"/><circle cx="8" cy="20" r="2" fill="#153C85"/>
    <circle cx="8" cy="38" r="3.5" stroke-width="0.6"/><circle cx="8" cy="38" r="2.5" fill="white"/><circle cx="8" cy="38" r="2" fill="#153C85"/>
    <circle cx="8" cy="56" r="3.5" stroke-width="0.6"/><circle cx="8" cy="56" r="2.5" fill="white"/><circle cx="8" cy="56" r="2" fill="#153C85"/>
    <circle cx="8" cy="74" r="3.5" stroke-width="0.6"/><circle cx="8" cy="74" r="2.5" fill="white"/><circle cx="8" cy="74" r="2" fill="#153C85"/>

    <circle cx="20" cy="92" r="3.5" stroke-width="0.6"/><circle cx="20" cy="92" r="2.5" fill="white"/><circle cx="20" cy="92" r="2" fill="#153C85"/>
    <circle cx="38" cy="92" r="3.5" stroke-width="0.6"/><circle cx="38" cy="92" r="2.5" fill="white"/><circle cx="38" cy="92" r="2" fill="#153C85"/>
    <circle cx="56" cy="92" r="3.5" stroke-width="0.6"/><circle cx="56" cy="92" r="2.5" fill="white"/><circle cx="56" cy="92" r="2" fill="#153C85"/>
    <circle cx="74" cy="92" r="3.5" stroke-width="0.6"/><circle cx="74" cy="92" r="2.5" fill="white"/><circle cx="74" cy="92" r="2" fill="#153C85"/>

    <circle cx="75" cy="25" r="3.5" stroke-width="0.6"/><circle cx="75" cy="25" r="2.5" fill="white"/><circle cx="75" cy="25" r="2" fill="#153C85"/>
    <circle cx="62" cy="38" r="3.5" stroke-width="0.6"/><circle cx="62" cy="38" r="2.5" fill="white"/><circle cx="62" cy="38" r="2" fill="#153C85"/>
    <circle cx="38" cy="62" r="3.5" stroke-width="0.6"/><circle cx="38" cy="62" r="2.5" fill="white"/><circle cx="38" cy="62" r="2" fill="#153C85"/>
    <circle cx="25" cy="75" r="3.5" stroke-width="0.6"/><circle cx="25" cy="75" r="2.5" fill="white"/><circle cx="25" cy="75" r="2" fill="#153C85"/>

    <circle cx="25" cy="25" r="3.5" stroke-width="0.6"/><circle cx="25" cy="25" r="2.5" fill="white"/><circle cx="25" cy="25" r="2" fill="#153C85"/>
    <circle cx="38" cy="38" r="3.5" stroke-width="0.6"/><circle cx="38" cy="38" r="2.5" fill="white"/><circle cx="38" cy="38" r="2" fill="#153C85"/>
    <circle cx="62" cy="62" r="3.5" stroke-width="0.6"/><circle cx="62" cy="62" r="2.5" fill="white"/><circle cx="62" cy="62" r="2" fill="#153C85"/>
    <circle cx="75" cy="75" r="3.5" stroke-width="0.6"/><circle cx="75" cy="75" r="2.5" fill="white"/><circle cx="75" cy="75" r="2" fill="#153C85"/>
  </g>
</svg>
